<?xml version="1.0" encoding="utf-8"?>
<!-- Generator: Adobe Illustrator 23.0.1, SVG Export Plug-In . SVG Version: 6.00 Build 0)  -->
<svg version="1.1" id="Layer_1" xmlns="http://www.w3.org/2000/svg" xmlns:xlink="http://www.w3.org/1999/xlink" x="0px" y="0px"
	 viewBox="0 0 112 150" style="enable-background:new 0 0 112 150;" xml:space="preserve">
<style type="text/css">
	.st0{fill:#2B2B2B;}
	.st1{fill:#6E6E6E;}
	.st2{fill:#781F29;}
	.st3{fill:#5B5B5B;}
</style>
<g>
	<g>
		<polygon class="st0" points="60.7,59.4 46.1,82.6 74.4,82.6 85.9,64.1 		"/>
		<polygon class="st0" points="56,17.4 45.7,32.1 70.2,37.7 		"/>
		<polygon class="st1" points="61.1,57.1 87.1,61.7 72.7,41.2 47.2,35.3 		"/>
		<polygon class="st2" points="89.1,64.6 77.7,82.6 101.7,82.6 		"/>
		<polyline class="st2" points="41.1,82.6 26.6,59.4 43.5,35.3 58.3,58.3 42.8,82.6 41.1,82.6 		"/>
		<polygon class="st1" points="10.3,82.6 37.1,82.6 24.9,61.7 		"/>
	</g>
	<g>
		<g>
			<path class="st2" d="M61.6,90c0-1,0-2,0-3c0-0.7,0.3-1.1,1-1.3c0.4-0.1,0.8-0.2,1.2-0.2c2.8,0,5.6-0.2,8.4,0.4
				c1.6,0.3,3,1.1,3.8,2.6c0.9,1.8,0.3,4-1.4,5.1c-1.6,1-3.4,1.2-5.2,1.4c-1.9,0.1-3.7,0.1-5.6,0c-1.8-0.1-2.2-0.5-2.2-2.4
				C61.6,91.7,61.6,90.8,61.6,90C61.6,90,61.6,90,61.6,90z M65.2,90.2c0,0.8,0,1.6,0,2.4c0,0.3,0.3,0.7,0.5,0.7
				c1.8,0.1,3.6,0.3,5.4-0.4c1.2-0.5,1.8-1.5,1.7-2.9c-0.1-1.4-0.7-2.2-2.1-2.6c-0.6-0.2-1.3-0.3-2-0.4
				C65.2,86.7,65.2,86.7,65.2,90.2z"/>
			<path class="st2" d="M86.2,95c-1.5,0-3.1,0-4.6,0c-1.8-0.1-2.2-0.5-2.3-2.3c0-1.7,0-3.3,0-5c0-1.6,0.4-2,2-2.2c0.3,0,0.5,0,0.8,0
				c2.7,0,5.3,0,8,0c0.6,0,1.3,0.2,1.9,0.4c0.1,0,0.3,0.3,0.3,0.5c0,0.2-0.2,0.4-0.4,0.4c-0.5,0.1-1,0.2-1.6,0.2c-2.1,0-4.3,0-6.4,0
				c-1,0-1,0.2-1.1,1.2c0,0.7,0.2,1.1,1,1.1c1.7,0,3.5-0.1,5.2,0c0.8,0,2.3-0.5,2.3,0.7c0,1-1.4,0.6-2.2,0.6c-1.7,0.1-3.5,0-5.2,0
				c-1.1,0-1.1,0.1-1.1,1.4c0,1.3,0,1.3,1.2,1.3c2.1,0,4.3,0,6.4,0c1.4,0,2.2,0.3,2,0.8C92,95,91.2,95,90.4,95
				C89,95,87.6,95,86.2,95z"/>
			<path class="st2" d="M19.6,89.1c0-0.7,0-1.3,0-2c0-1.4,0.4-1.7,1.6-1.7c1.3,0,1.7,0.4,1.7,1.6c0,1.1,0,2.3,0,3.4
				c0,2.2,0.7,2.9,2.8,3c0.7,0,1.5,0,2.2,0c1.7-0.2,2.4-0.9,2.4-2.6c0-1.3,0-2.5,0-3.8c0-1.3,0.4-1.6,1.5-1.6c1.2-0.1,2,0.4,2,1.4
				c0,1.7-0.1,3.5-0.2,5.2c-0.1,1-0.6,1.6-1.5,2c-0.9,0.4-1.9,0.9-2.8,1c-2.1,0.1-4.3,0.1-6.4-0.3c-2.9-0.5-3.5-1.4-3.6-4.4
				C19.6,89.9,19.6,89.5,19.6,89.1z"/>
			<path class="st2" d="M9.8,85.1c1.2,0.2,2,0.5,2.7,1.4c1.5,2.1,3.1,4.2,4.7,6.3c0.3,0.5,0.8,0.9,0.5,1.6c-0.3,0.5-1.2,0.8-2,0.5
				c-0.6-0.2-1.1-0.7-1.5-1.2c-0.6-0.9-1.3-1.2-2.4-1.1c-1.2,0.1-2.4,0.1-3.6,0c-1.2-0.1-2,0.2-2.6,1.3c-0.6,1.1-1.7,1.4-2.8,1
				c-0.7-0.2-0.9-0.8-0.5-1.4c1.7-2.5,3.4-4.9,5.3-7.3C8.1,85.7,9.1,85.5,9.8,85.1z M7.6,90.9C7.9,91,8,91.1,8.2,91.1
				c1.1,0,2.3,0,3.4,0c0.6,0,0.5-0.3,0.3-0.6c-0.6-0.9-1.2-1.8-1.8-2.6c-0.1-0.1-0.4-0.2-0.4-0.1C9,88.7,8.4,89.7,7.6,90.9z"/>
			<path class="st2" d="M102,92.6c-0.5,0-0.9,0.1-1.4,0c-1.4-0.2-2.5,0.2-3.1,1.5c-0.4,0.8-1.2,1-2.1,0.9c-1.2-0.1-1.6-0.7-0.9-1.7
				c1.6-2.2,3.1-4.5,4.8-6.6c1.5-1.9,4-1.8,5.4,0.2c1.6,2.1,3.2,4.3,4.7,6.5c0.6,0.9,0.3,1.5-0.7,1.7c-0.8,0.2-1.7,0.1-2.1-0.7
				c-0.9-1.6-2.3-1.8-3.9-1.6C102.6,92.7,102.3,92.6,102,92.6z M101.6,91.1c0.8,0,1.3,0,1.8,0c0.2,0,0.5,0,0.7-0.1
				c0-0.2,0-0.5-0.2-0.7c-0.2-0.4-0.5-0.8-0.8-1.2c-1.2-1.7-1.2-1.7-2.3,0c-0.4,0.6-0.7,1.3-1.1,1.9C100.5,91,101.2,91.1,101.6,91.1
				z"/>
			<path class="st2" d="M44.1,95c-1.2,0-2.1-0.3-2.8-1.3c-1.4-2.2-2.9-4.3-4.3-6.5c-0.7-1.1-0.3-1.7,0.9-1.8
				c1.1-0.1,1.8,0.3,2.3,1.2c1.1,1.8,2.2,3.5,3.2,5.3c0.5,0.8,0.7,0.8,1.2,0c1.1-1.7,2.2-3.5,3.3-5.3c0.5-0.8,1.1-1.2,2.1-1.2
				c1,0,1.8,0.7,1,1.8c-1.6,2.2-3.1,4.5-4.6,6.8C46,94.8,45.1,95,44.1,95z"/>
			<path class="st2" d="M54.3,90c0-1.1,0-2.1,0-3.2c0-1,0.6-1.5,1.7-1.5c1.1,0,1.8,0.4,1.8,1.4c0.1,2.3,0.1,4.5,0,6.8
				c0,1.1-0.8,1.6-1.9,1.5c-1.1-0.1-1.6-0.5-1.6-1.6C54.3,92.3,54.3,91.2,54.3,90z"/>
		</g>
	</g>
</g>
<g>
	<path class="st3" d="M35.2,115.3h3.2v13c0,0.9-0.2,1.7-0.5,2.5c-0.3,0.7-0.7,1.3-1.3,1.8s-1.2,0.9-1.9,1.1
		c-0.7,0.3-1.5,0.4-2.4,0.4c-0.9,0-1.7-0.1-2.4-0.3c-0.7-0.2-1.4-0.6-1.9-1c-0.5-0.5-1-1-1.3-1.7s-0.5-1.5-0.5-2.5h3.2
		c0,0.5,0.1,1,0.2,1.4c0.1,0.4,0.3,0.7,0.6,0.9c0.3,0.2,0.6,0.4,0.9,0.5s0.7,0.2,1.2,0.2c0.4,0,0.8-0.1,1.1-0.2
		c0.3-0.1,0.6-0.3,0.9-0.6c0.3-0.3,0.4-0.6,0.6-1c0.1-0.4,0.2-0.9,0.2-1.4V115.3z"/>
	<path class="st3" d="M50,133.9H47V119l-4.6,1.6v-2.6l7.2-2.7H50V133.9z"/>
	<path class="st3" d="M69,133.9H56.5v-2.1l6-6.6c0.5-0.6,0.9-1.1,1.3-1.5c0.3-0.4,0.6-0.8,0.8-1.2c0.2-0.4,0.3-0.7,0.4-1
		s0.1-0.6,0.1-0.9c0-0.4-0.1-0.8-0.2-1.2s-0.3-0.7-0.5-0.9s-0.5-0.5-0.9-0.6c-0.3-0.1-0.7-0.2-1.2-0.2c-0.5,0-1,0.1-1.4,0.3
		c-0.4,0.2-0.7,0.4-1,0.7s-0.5,0.7-0.6,1.1c-0.1,0.4-0.2,0.9-0.2,1.4h-3.1c0-0.8,0.1-1.6,0.4-2.3s0.7-1.3,1.2-1.9
		c0.5-0.5,1.2-1,2-1.3c0.8-0.3,1.7-0.5,2.7-0.5c0.9,0,1.8,0.1,2.5,0.4c0.7,0.2,1.3,0.6,1.8,1c0.5,0.4,0.9,1,1.1,1.6
		c0.3,0.6,0.4,1.3,0.4,2.1c0,0.6-0.1,1.2-0.3,1.7c-0.2,0.6-0.4,1.1-0.8,1.7s-0.7,1.1-1.2,1.7c-0.5,0.6-1,1.1-1.5,1.7l-4.1,4.4H69
		V133.9z"/>
	<path class="st3" d="M83.4,126.1c0,1.5-0.1,2.7-0.4,3.7c-0.3,1-0.7,1.9-1.2,2.5c-0.5,0.6-1.2,1.1-1.9,1.4s-1.6,0.4-2.5,0.4
		c-0.9,0-1.7-0.1-2.5-0.4c-0.7-0.3-1.4-0.8-1.9-1.4c-0.5-0.6-1-1.5-1.2-2.5c-0.3-1-0.4-2.3-0.4-3.7v-3c0-1.5,0.1-2.7,0.4-3.7
		s0.7-1.8,1.2-2.5c0.5-0.6,1.2-1.1,1.9-1.4c0.7-0.3,1.6-0.4,2.5-0.4c0.9,0,1.8,0.1,2.5,0.4c0.7,0.3,1.4,0.7,1.9,1.4
		c0.5,0.6,0.9,1.5,1.2,2.5s0.4,2.3,0.4,3.7V126.1z M80.3,122.6c0-0.9-0.1-1.7-0.2-2.4c-0.1-0.6-0.3-1.2-0.6-1.6
		c-0.3-0.4-0.6-0.7-0.9-0.9c-0.4-0.2-0.8-0.3-1.3-0.3c-0.5,0-0.9,0.1-1.3,0.3c-0.4,0.2-0.7,0.5-0.9,0.9c-0.3,0.4-0.4,0.9-0.6,1.6
		c-0.1,0.6-0.2,1.4-0.2,2.4v3.9c0,0.9,0.1,1.7,0.2,2.4c0.1,0.7,0.3,1.2,0.6,1.6c0.3,0.4,0.6,0.7,0.9,0.9c0.4,0.2,0.8,0.3,1.3,0.3
		c0.5,0,0.9-0.1,1.3-0.3c0.4-0.2,0.7-0.5,0.9-0.9s0.4-0.9,0.6-1.6c0.1-0.7,0.2-1.4,0.2-2.4V122.6z"/>
</g>
</svg>
